<svg width="24" height="17" viewBox="0 0 24 17" fill="none" xmlns="http://www.w3.org/2000/svg">
<path d="M19.82 6.99344C19.9673 6.60891 20.05 6.18844 20.05 5.75C20.05 3.84531 18.5047 2.3 16.6 2.3C15.892 2.3 15.2308 2.51562 14.6845 2.88219C13.6891 1.15719 11.8311 0 9.7 0C6.52312 0 3.95 2.57312 3.95 5.75C3.95 5.84703 3.95359 5.94406 3.95719 6.04109C1.94469 6.74906 0.5 8.66812 0.5 10.925C0.5 13.782 2.81797 16.1 5.675 16.1H18.9C21.4408 16.1 23.5 14.0408 23.5 11.5C23.5 9.27547 21.9187 7.4175 19.82 6.99344ZM14.6378 9.2H12.2875V13.225C12.2875 13.5412 12.0287 13.8 11.7125 13.8H9.9875C9.67125 13.8 9.4125 13.5412 9.4125 13.225V9.2H7.06219C6.54828 9.2 6.29313 8.58187 6.65609 8.21891L10.4439 4.43109C10.6667 4.20828 11.0333 4.20828 11.2561 4.43109L15.0439 8.21891C15.4069 8.58187 15.1481 9.2 14.6378 9.2Z" fill="white"/>
</svg>
