<?xml version="1.0" standalone="no"?>
<!DOCTYPE svg PUBLIC "-//W3C//DTD SVG 20010904//EN"
 "http://www.w3.org/TR/2001/REC-SVG-20010904/DTD/svg10.dtd">
<svg version="1.0" xmlns="http://www.w3.org/2000/svg"
 width="700.000000pt" height="700.000000pt" viewBox="0 0 700.000000 700.000000"
 preserveAspectRatio="xMidYMid meet">
<metadata>
Created by potrace 1.14, written by Peter Selinger 2001-2017
</metadata>
<g transform="translate(0.000000,700.000000) scale(0.100000,-0.100000)"
fill="#000000" stroke="none">
<path d="M3448 6646 c-28 -21 -38 -62 -38 -151 l0 -84 -342 -3 c-337 -3 -344
-4 -393 -27 -73 -35 -157 -123 -186 -196 -23 -58 -24 -68 -27 -387 -2 -181 -5
-328 -7 -328 -3 0 -27 16 -53 35 -97 69 -246 135 -402 177 -76 20 -106 23
-285 22 -209 -1 -263 -10 -423 -68 -313 -116 -593 -398 -707 -714 -60 -165
-67 -218 -72 -513 l-5 -275 -44 -24 c-210 -111 -200 -433 17 -578 l64 -43 6
-132 c11 -227 73 -415 196 -600 89 -132 216 -257 344 -339 l68 -43 1 -183 0
-182 -32 -15 c-18 -8 -166 -71 -328 -140 -162 -69 -319 -140 -348 -158 -72
-43 -190 -168 -230 -244 -79 -149 -76 -128 -80 -620 l-3 -443 25 -25 25 -25
1579 0 c1540 0 1580 0 1603 19 l24 19 3 391 3 391 1542 0 c1009 0 1564 4 1607
10 125 20 217 87 277 202 l28 53 0 2360 0 2360 -27 57 c-34 73 -103 142 -176
176 -57 26 -59 27 -329 30 l-271 3 -4 105 c-3 98 -5 106 -28 124 -24 19 -58
20 -1290 19 -1022 0 -1268 -2 -1282 -13z m-37 -482 c4 -79 6 -87 32 -110 l28
-24 1262 0 c976 1 1266 3 1278 13 29 22 39 55 39 131 l0 76 248 0 c218 0 252
-3 287 -19 49 -22 91 -69 105 -119 8 -26 10 -728 8 -2347 l-3 -2310 -24 -36
c-14 -20 -41 -47 -60 -60 l-35 -24 -1603 -3 c-1523 -2 -1604 -1 -1609 15 -43
125 -159 276 -267 345 -28 18 -145 73 -261 123 l-211 90 -3 357 -2 357 28 33
c91 107 167 244 215 389 39 116 54 201 64 352 l6 104 47 26 c188 106 239 372
100 529 -21 25 -61 55 -88 68 l-49 24 -6 245 c-5 254 -16 344 -59 481 -33 105
-113 258 -188 360 l-70 94 0 366 c0 400 4 438 56 494 59 63 77 66 420 66 l312
0 3 -86z m-2109 -1855 c166 -125 435 -245 673 -299 247 -56 568 -74 798 -45
127 16 139 16 162 1 117 -77 61 -287 -87 -324 -78 -20 -82 -30 -89 -226 -7
-204 -27 -292 -99 -441 -149 -309 -428 -515 -770 -570 -120 -19 -194 -19 -306
0 -228 39 -413 133 -570 290 -206 206 -303 446 -304 752 0 125 -1 133 -25 161
-13 16 -39 32 -57 36 -47 9 -101 50 -127 96 -40 72 -24 191 29 220 16 9 26 7
48 -8 53 -38 172 -92 201 -92 17 0 41 5 55 11 45 21 55 59 66 279 6 113 14
208 18 212 4 4 52 9 107 11 55 1 119 4 142 5 37 2 51 -5 135 -69z m1153 -2327
c-3 -3 -21 2 -40 11 l-35 17 0 203 0 204 38 26 37 27 3 -241 c1 -133 0 -244
-3 -247z m-252 47 c-32 -30 -318 -89 -431 -89 -77 0 -197 18 -300 46 -154 41
-142 26 -142 177 0 117 2 129 17 123 9 -4 53 -17 97 -29 70 -19 108 -21 281
-22 179 0 210 3 294 24 51 13 114 32 140 41 l46 18 3 -141 c1 -77 -1 -144 -5
-148z m-842 -190 c108 -39 283 -69 409 -69 123 0 297 29 415 69 l90 31 120
-52 c169 -73 416 -178 440 -187 125 -51 196 -95 252 -155 69 -73 117 -164 132
-250 6 -35 11 -198 11 -388 l0 -328 -1465 0 -1465 0 0 332 c0 271 3 344 16
397 30 121 109 240 202 305 22 15 103 54 179 87 76 33 147 64 158 69 11 5 70
30 130 55 128 54 188 80 230 100 42 20 51 19 146 -16z"/>
<path d="M3770 5535 c-340 -76 -584 -293 -692 -615 -32 -93 -32 -99 -32 -270
0 -160 2 -182 26 -256 99 -307 322 -524 636 -616 65 -19 101 -22 227 -22 167
0 240 15 381 79 207 95 378 279 464 503 73 191 73 433 -2 627 -85 222 -258
408 -471 505 -154 70 -389 98 -537 65z m380 -186 c247 -84 426 -267 489 -499
116 -427 -151 -849 -584 -921 -97 -16 -264 -6 -345 21 -238 80 -414 265 -486
510 -28 99 -26 290 5 390 60 191 167 331 328 428 134 81 228 103 408 97 91 -3
137 -9 185 -26z"/>
<path d="M4033 4758 c-150 -150 -276 -275 -278 -277 -3 -3 -50 39 -104 92
-113 111 -139 121 -192 68 -32 -33 -36 -59 -15 -99 16 -29 225 -239 266 -266
54 -36 55 -35 397 306 218 218 324 331 328 349 7 31 -16 83 -40 93 -9 3 -33 6
-52 6 -33 0 -54 -18 -310 -272z"/>
<path d="M5065 5325 c-16 -15 -25 -36 -25 -55 0 -50 38 -80 100 -80 44 0 56 5
81 29 16 16 29 39 29 51 0 12 -13 35 -29 51 -25 24 -37 29 -81 29 -41 0 -56
-5 -75 -25z"/>
<path d="M5485 5338 c-51 -27 -60 -84 -20 -123 l24 -25 320 0 320 0 27 23 c36
32 36 83 -1 115 -26 22 -29 22 -338 22 -206 -1 -319 -4 -332 -12z"/>
<path d="M5060 4638 c-28 -31 -26 -79 6 -109 l26 -24 320 0 320 0 24 28 c29
34 31 66 3 101 l-20 26 -329 0 c-326 0 -329 0 -350 -22z"/>
<path d="M5995 4640 c-26 -29 -25 -85 2 -112 31 -30 135 -31 165 -1 25 26 27
87 2 114 -26 28 -143 28 -169 -1z"/>
<path d="M4924 3960 c-28 -11 -54 -48 -54 -78 0 -12 11 -34 25 -47 23 -24 29
-25 159 -25 133 0 135 0 155 26 35 45 26 95 -20 119 -31 17 -228 20 -265 5z"/>
<path d="M5473 3960 c-46 -19 -59 -95 -21 -130 21 -19 33 -20 353 -20 320 0
332 1 353 20 32 30 33 82 1 115 -19 19 -34 20 -342 22 -177 1 -332 -2 -344 -7z"/>
<path d="M3303 3060 c-29 -27 -37 -56 -23 -89 19 -47 42 -51 305 -51 263 0
286 4 305 51 14 33 6 62 -23 89 -20 19 -36 20 -282 20 -246 0 -262 -1 -282
-20z"/>
<path d="M4116 3055 c-25 -23 -33 -56 -20 -90 18 -46 149 -62 198 -24 20 16
26 29 26 59 0 57 -34 80 -115 80 -52 0 -66 -4 -89 -25z"/>
<path d="M4483 3060 c-12 -10 -24 -29 -28 -40 -10 -30 12 -75 41 -89 18 -8
189 -11 579 -11 390 0 561 3 579 11 29 14 51 59 41 89 -4 11 -16 30 -28 40
-20 19 -38 20 -592 20 -554 0 -572 -1 -592 -20z"/>
<path d="M5853 3060 c-29 -27 -37 -56 -23 -89 17 -42 48 -51 180 -51 110 0
121 2 146 23 20 17 27 33 27 57 0 24 -7 40 -27 57 -25 21 -35 23 -155 23 -113
0 -130 -2 -148 -20z"/>
<path d="M3313 2248 c-12 -6 -27 -23 -34 -39 -15 -37 2 -82 37 -98 17 -8 165
-11 488 -11 454 0 464 0 490 21 37 29 37 89 0 118 -26 21 -36 21 -493 20 -305
0 -474 -4 -488 -11z"/>
<path d="M4555 2235 c-35 -34 -34 -86 1 -114 25 -20 39 -21 276 -21 l249 0 24
25 c16 15 25 36 25 55 0 19 -9 40 -25 55 l-24 25 -251 0 -251 0 -24 -25z"/>
<path d="M5243 2248 c-50 -24 -48 -114 3 -137 14 -6 47 -11 75 -11 61 0 99 31
99 80 0 51 -38 80 -102 79 -29 0 -63 -5 -75 -11z"/>
<path d="M5586 2239 c-20 -16 -26 -29 -26 -59 0 -30 6 -43 26 -59 25 -20 39
-21 285 -21 256 0 258 0 285 23 36 32 36 83 -1 115 -26 22 -31 22 -284 22
-246 0 -260 -1 -285 -21z"/>
</g>
</svg>
